<?xml version="1.0" encoding="UTF-8" standalone="no"?>
<!-- Created with Inkscape (http://www.inkscape.org/) -->

<svg
   xmlns:dc="http://purl.org/dc/elements/1.1/"
   xmlns:cc="http://creativecommons.org/ns#"
   xmlns:rdf="http://www.w3.org/1999/02/22-rdf-syntax-ns#"
   xmlns:svg="http://www.w3.org/2000/svg"
   xmlns="http://www.w3.org/2000/svg"
   xmlns:sodipodi="http://sodipodi.sourceforge.net/DTD/sodipodi-0.dtd"
   xmlns:inkscape="http://www.inkscape.org/namespaces/inkscape"
   width="144"
   height="144"
   viewBox="0 0 38.099999 38.100001"
   version="1.1"
   id="svg8"
   inkscape:version="0.92.3 (2405546, 2018-03-11)"
   sodipodi:docname="icon_c13.svg"
   inkscape:export-filename="/home/inb/rcruces/Desktop/github/c13inb.github.io/public/icon_c13_32px.png"
   inkscape:export-xdpi="21.333334"
   inkscape:export-ydpi="21.333334">
  <defs
     id="defs2" />
  <sodipodi:namedview
     id="base"
     pagecolor="#ffffff"
     bordercolor="#666666"
     borderopacity="1.0"
     inkscape:pageopacity="0.0"
     inkscape:pageshadow="2"
     inkscape:zoom="2.8"
     inkscape:cx="-7.1006386"
     inkscape:cy="43.077972"
     inkscape:document-units="mm"
     inkscape:current-layer="g866"
     showgrid="false"
     units="px"
     inkscape:measure-start="0,0"
     inkscape:measure-end="0,0"
     inkscape:window-width="960"
     inkscape:window-height="1025"
     inkscape:window-x="2880"
     inkscape:window-y="27"
     inkscape:window-maximized="0" />
  <metadata
     id="metadata5">
    <rdf:RDF>
      <cc:Work
         rdf:about="">
        <dc:format>image/svg+xml</dc:format>
        <dc:type
           rdf:resource="http://purl.org/dc/dcmitype/StillImage" />
        <dc:title />
      </cc:Work>
    </rdf:RDF>
  </metadata>
  <g
     inkscape:label="Layer 1"
     inkscape:groupmode="layer"
     id="layer1"
     transform="translate(0,-258.89998)">
    <rect
       style="fill:#333333;stroke:none;stroke-width:2.00891852;stroke-miterlimit:4;stroke-dasharray:none"
       id="rect860"
       width="38.099998"
       height="38.099998"
       x="0"
       y="258.89996" />
    <g
       id="g866"
       transform="translate(-0.0086283,1.0018234)">
      <path
         inkscape:connector-curvature="0"
         d="m 17.233663,271.36364 c 0.466792,-0.45129 0.947206,-0.8896 1.396126,-1.35568 0.405811,-0.39686 0.782424,-0.81474 1.106104,-1.26833 0.270131,-0.38586 0.467354,-0.80573 0.649843,-1.22936 0.158287,-0.33995 0.305596,-0.68261 0.409674,-1.03926 0.08129,-0.28876 0.159003,-0.57813 0.240411,-0.86686 0.05914,-0.19067 0.06465,-0.38852 0.08862,-0.58376 0.05085,-0.51715 -4.16e-4,-0.16854 1.453297,-0.61546 0.03947,-0.0121 0.02874,0.0703 0.04001,0.10634 0.04065,0.12996 0.06019,0.26564 0.08757,0.39813 0.0769,0.38474 0.138602,0.77101 0.172438,1.16074 0.04059,0.5004 0.05012,1.00208 0.05694,1.50358 0.0019,0.44448 0.0127,0.88924 -0.01,1.33335 -0.05225,0.54743 -0.06122,1.09698 -0.0979,1.64511 -0.06496,0.69159 -0.0936,1.38498 -0.111127,2.07865 -0.01937,0.98597 -0.0042,1.9721 -0.02994,2.95795 -0.03413,0.95488 -0.06239,1.90986 -0.07328,2.8652 -0.01298,0.84488 -0.0067,1.68986 -0.01508,2.53476 -0.0049,0.89573 0.01022,1.79133 -0.02229,2.6867 -0.02351,0.50516 -0.04146,1.01044 -0.05218,1.51594 -0.0042,0.25172 -0.003,0.50349 -0.0021,0.75523 0.01441,0.18873 -0.01761,0.37364 -0.05513,0.55847 -0.02812,0.13211 -0.03845,0.26613 -0.04442,0.40024 -0.0012,0.16356 -0.05139,0.32207 -0.07768,0.48318 -0.0291,0.20381 -0.0319,0.40951 -0.03432,0.61466 -0.0062,0.24512 0.0058,0.49047 -0.01145,0.73522 -0.0052,0.0398 -0.01044,0.0797 -0.01562,0.11946 0,0 -1.407678,0.62224 -1.407678,0.62224 v 0 c 0.0064,-0.0383 0.0128,-0.0764 0.01919,-0.1147 0.03318,-0.23983 0.0077,-0.48262 0.01507,-0.72386 0.002,-0.20944 0.001,-0.41942 0.02271,-0.62815 0.01976,-0.1578 0.06362,-0.31219 0.08006,-0.46866 0.0031,-0.14068 0.01123,-0.28129 0.03684,-0.42033 0.0355,-0.17866 0.09051,-0.35425 0.07152,-0.53775 0.0011,-0.25477 0.0042,-0.50952 0.01313,-0.76418 0.01801,-0.51154 0.05444,-1.02239 0.08543,-1.5334 0.04889,-0.89541 0.04405,-1.791 0.03719,-2.68734 -0.0075,-0.84484 -6.24e-4,-1.68974 0.0098,-2.53453 0.02109,-0.95791 0.04966,-1.9156 0.08827,-2.87309 0.02278,-0.9839 0.006,-1.96817 0.01977,-2.95222 0.0053,-0.6908 0.0051,-1.38247 0.07725,-2.07097 0.04257,-0.54606 0.04501,-1.09405 0.09197,-1.64002 0.02601,-0.44155 0.0083,-0.88397 0.0135,-1.32601 -0.0024,-0.49876 -0.0077,-0.998 -0.04812,-1.49567 -0.03963,-0.38251 -0.104692,-0.761 -0.182919,-1.1386 -0.02906,-0.12549 -0.04583,-0.2551 -0.08409,-0.37868 -0.0094,-0.0306 -0.06355,-0.0725 -0.03416,-0.0903 0.615573,-0.37252 1.855662,-0.94038 1.333573,-0.701 -0.05356,0.19393 -0.02186,0.40226 -0.08947,0.59563 -0.08032,0.29142 -0.174353,0.57953 -0.250845,0.87194 -0.09971,0.36247 -0.232543,0.71522 -0.404928,1.05555 -0.184497,0.43129 -0.380233,0.8605 -0.647233,1.25703 -0.314546,0.46767 -0.691172,0.8962 -1.110007,1.29288 -0.436659,0.45883 -0.903686,0.8909 -1.354754,1.33772 0,0 -1.449514,0.55227 -1.449514,0.55227 z"
         id="path838"
         style="fill:#ffffff;stroke:none;stroke-width:2.12676191;stroke-miterlimit:4;stroke-dasharray:none" />
      <path
         inkscape:connector-curvature="0"
         d="m 23.695343,268.2222 c 0.194232,-0.44892 0.449006,-0.87131 0.775515,-1.26023 0.278915,-0.28563 0.602725,-0.54817 0.981823,-0.73681 1.641099,-0.81661 1.131126,-0.62164 2.049202,-0.94708 0.710244,-0.22736 1.46171,-0.30141 2.215292,-0.30616 0.812711,0.0184 1.60707,0.16937 2.385955,0.35664 0.522945,0.13526 1.045417,0.27016 1.554034,0.44061 0.294766,0.0967 0.486371,0.21143 0.675017,0.42562 0.233737,0.29924 0.267787,0.66825 0.323145,1.01516 0.07164,0.41636 0.08795,0.83695 0.09912,1.25696 0.03843,0.4489 -0.02967,0.88709 -0.151704,1.3226 -0.139401,0.4574 -0.362365,0.8903 -0.646371,1.29516 -0.207592,0.28577 -0.462575,0.53711 -0.768702,0.74818 -0.757516,0.48651 -1.43469,0.90306 -2.342902,0.96344 -0.360672,0.0145 -0.721935,0.0135 -1.082925,0.013 -0.315153,-10e-4 -0.630284,-0.004 -0.945447,-0.004 -0.259642,0.002 -0.519346,-9.5e-4 -0.778967,0.003 -0.609831,0.0178 -0.746452,0.26642 1.365219,-0.78629 0.02578,-0.0129 0.05269,0.024 0.07994,0.0344 0.0897,0.0342 0.09551,0.0314 0.194978,0.0531 0.384669,0.10402 0.759899,0.22964 1.147893,0.32491 0.352004,0.0679 0.700245,0.1478 1.049619,0.22403 0.327967,0.0838 0.6195,0.23722 0.888597,0.41365 0.38986,0.2695 0.695436,0.61768 0.979241,0.96723 0.47349,0.60831 0.838002,1.27228 1.195982,1.93349 0.459227,0.81504 0.717085,1.6913 0.99361,2.55914 0.282301,0.9086 0.431635,1.83943 0.515717,2.77474 0.07017,0.88328 0.08414,1.77136 -0.0019,2.65394 -0.109421,0.79951 -0.41731,1.56845 -0.82767,2.29006 -0.379055,0.64324 -0.875423,1.22186 -1.459266,1.73985 -0.703597,0.61756 -1.610536,1.08292 -2.571087,1.34991 -0.404749,0.0988 -0.828997,0.0884 -1.242939,0.13348 -0.424354,0.0418 -0.851539,0.0586 -1.278319,0.07 -0.410563,0.0263 -0.817614,-0.012 -1.226035,-0.0413 -0.384623,-0.0442 -0.765211,-0.10548 -1.14039,-0.18969 -0.340031,-0.0931 -0.662048,-0.22358 -0.949044,-0.40432 -0.362599,-0.26233 -0.653257,-0.59317 -0.929888,-0.92095 -0.212639,-0.25526 -0.420995,-0.51785 -0.583661,-0.79914 -0.111411,-0.21921 -0.114585,-0.46088 -0.120712,-0.69566 0.0016,-0.3516 0.0042,-0.70315 0.0025,-1.05475 -3e-4,-0.0489 -5.95e-4,-0.0978 -9.07e-4,-0.14673 0,0 1.469538,-0.63629 1.469538,-0.63629 v 0 c -6.59e-4,0.0493 -0.0013,0.0987 -0.0019,0.14799 -0.0044,0.34968 -0.0071,0.69942 0.0014,1.04907 0.0057,0.21512 0.0016,0.43739 0.09191,0.6416 0.148696,0.2774 0.343348,0.53804 0.549845,0.78643 0.268134,0.31496 0.549237,0.63628 0.913182,0.87549 0.280246,0.16033 0.586059,0.28616 0.912758,0.36244 0.369625,0.074 0.742348,0.13864 1.120157,0.17406 0.405662,0.0279 0.810852,0.047 1.217929,0.0262 0.425751,-0.0133 0.851289,-0.0332 1.274078,-0.08 0.408289,-0.0304 0.824283,-0.0386 1.214736,-0.15738 0.540007,-0.18288 1.415769,-0.63012 -0.82026,0.45695 -0.0671,0.0326 0.130131,-0.0711 0.19236,-0.11007 0.204297,-0.12795 0.218519,-0.15165 0.40761,-0.30924 0.603514,-0.50041 1.114151,-1.06909 1.502364,-1.70765 0.419267,-0.70719 0.725294,-1.45529 0.849003,-2.24338 0.103072,-0.87707 0.09904,-1.76173 0.03101,-2.64091 -0.08588,-0.92645 -0.228551,-1.84996 -0.505376,-2.75078 -0.275459,-0.85992 -0.533369,-1.72802 -0.985927,-2.53672 -0.357851,-0.6526 -0.733222,-1.30168 -1.212536,-1.89734 -0.280375,-0.33531 -0.582429,-0.66783 -0.968339,-0.9205 -0.262872,-0.15933 -0.542394,-0.29864 -0.858372,-0.36663 -0.347162,-0.0799 -0.695637,-0.15544 -1.0434,-0.23347 -0.388269,-0.1032 -0.769642,-0.22454 -1.162237,-0.31595 -0.154643,-0.0439 -0.07772,-0.0189 -0.212823,-0.0679 -0.0263,-0.009 -0.100984,-0.0129 -0.07896,-0.0284 1.551461,-1.0909 0.758758,-0.85237 1.366194,-0.83184 0.256423,0.004 0.512939,10e-4 0.769382,0.004 0.315689,10e-4 0.631388,3.9e-4 0.947067,0.003 0.356329,0.002 0.713716,0.006 1.068762,-0.0242 0.161525,-0.0199 0.314335,-0.0413 0.465534,-0.0964 0.04583,-0.0167 0.17698,-0.0778 0.134141,-0.0562 -1.834427,0.92799 -1.611879,0.81192 -1.108154,0.54532 0.03804,-0.0241 0.262866,-0.16516 0.299816,-0.19383 0.191948,-0.14892 0.340324,-0.33837 0.49838,-0.51164 0.298688,-0.3887 0.530721,-0.80857 0.675124,-1.25777 0.125574,-0.42372 0.203583,-0.84889 0.164885,-1.28774 -0.0088,-0.41518 -0.02437,-0.83095 -0.08855,-1.24313 -0.05372,-0.32005 -0.08452,-0.66686 -0.297007,-0.94378 -0.16851,-0.17626 -0.374983,-0.28394 -0.624659,-0.36572 -0.493834,-0.1756 -1.005514,-0.31007 -1.516997,-0.44329 -0.768435,-0.18295 -1.553967,-0.32709 -2.356288,-0.32496 -0.743824,0.0209 -1.485495,0.10486 -2.178235,0.3497 -0.687715,0.26726 -0.561748,0.23081 0.726902,-0.40594 0.09734,-0.0481 -0.193539,0.0981 -0.28649,0.15206 -0.263267,0.15295 -0.500019,0.33431 -0.710737,0.5376 -0.335424,0.36524 -0.602001,0.76942 -0.765982,1.21331 0,0 -1.504252,0.59501 -1.504252,0.59501 z"
         id="path854"
         style="fill:#ffffff;stroke:none;stroke-width:2.18389034;stroke-miterlimit:4;stroke-dasharray:none" />
      <path
         sodipodi:nodetypes="ccccccccccccccccccccccccccccccccccccccccccccccccccccccccccccccccccccc"
         inkscape:connector-curvature="0"
         d="m 12.841458,278.07077 c 0.05433,-0.0103 0.109238,-0.0195 0.163,-0.0309 0.06545,-0.0138 0.131599,-0.027 0.194467,-0.0447 0.06754,-0.0191 0.260479,-0.0884 0.195794,-0.0658 -2.000476,0.69879 -1.326613,0.50582 -0.827331,0.22234 0.406115,-0.25646 0.607785,-0.58966 0.75422,-0.92952 0.13175,-0.34157 0.143721,-0.69174 0.120243,-1.04052 -0.03667,-0.41229 -0.179861,-0.8135 -0.397922,-1.20258 -0.147277,-0.23071 -0.286808,-0.46182 -0.624452,-0.60874 -0.347871,-0.12208 -0.732199,-0.18932 -1.112183,-0.26094 -0.447067,-0.0731 -0.892464,-0.14891 -1.3483407,-0.19817 -0.5500677,-0.0394 -1.101041,-0.0757 -1.6533762,-0.1014 l -1.9809812,0.58043 c -0.5311351,0.33919 -1.0027693,0.71058 -1.4285148,1.1017 -0.3906622,0.36588 -0.7242462,0.75376 -0.9745211,1.16374 -0.2147892,0.43304 -0.4306983,0.86611 -0.6365824,1.3008 -0.2206401,0.58275 -0.4165133,1.16817 -0.5388152,1.76198 -0.1429338,0.71514 -0.199529,1.43509 -0.2286457,2.15495 -0.070162,0.67975 0.038298,1.34128 0.2003835,2.01221 0.1377421,0.58581 0.3980669,1.15336 0.6939191,1.71484 0.2475295,0.42562 0.5661567,0.83281 0.8872346,1.23855 0.2570708,0.36536 0.6118584,0.68937 1.077824,0.96365 0.3097017,0.16832 0.6449905,0.32508 1.0305476,0.4196 0.3429169,0.0897 0.7117542,0.11589 1.0795636,0.13159 0.3602568,0.0388 0.7239481,0.0579 1.0888396,0.0684 0.4465209,-0.007 0.8834709,-0.0703 1.2983586,-0.16963 0.6266557,-0.13978 2.0218937,-0.66782 -0.4843627,0.21482 0.3639977,-0.15719 0.6633394,-0.36056 0.9607084,-0.56212 0.328492,-0.23301 0.661669,-0.46314 0.976159,-0.70347 0.274534,-0.19687 0.524486,-0.40395 0.754655,-0.62118 0.244686,-0.2216 0.444891,-0.45848 0.613911,-0.70506 0.142891,-0.20882 0.253152,-0.42541 0.366435,-0.64086 0.07723,-0.14461 0.03893,-0.0741 0.114759,-0.21149 l 1.491266,-0.43098 v 0 c -0.07809,0.13724 -0.0377,0.0676 -0.121323,0.20876 -0.09911,0.22046 -0.223342,0.43799 -0.362066,0.65002 -0.159368,0.25325 -0.358796,0.49562 -0.60074,0.72293 -0.232342,0.21944 -0.463492,0.43828 -0.752858,0.63172 -0.315499,0.24141 -0.644925,0.4749 -0.973865,0.7092 -0.296281,0.2023 -0.584602,0.411 -0.934171,0.57983 -0.770443,0.28231 -1.4936124,0.5994 -2.3402824,0.78005 -0.432667,0.0875 -0.881664,0.14609 -1.3395073,0.1388 -0.3668425,-0.0125 -0.7307886,-0.038 -1.0944832,-0.07 -0.380657,-0.023 -0.7587004,-0.0612 -1.1108629,-0.15846 -0.3900112,-0.11278 -0.7349009,-0.27422 -1.0474485,-0.45645 -0.4689193,-0.28764 -0.8314799,-0.6218 -1.0936308,-0.99758 -0.3283058,-0.40937 -0.6487597,-0.82127 -0.8899178,-1.25416 -0.2936999,-0.5686 -0.5517694,-1.14286 -0.686226,-1.73544 -0.166312,-0.67145 -0.2902058,-1.34611 -0.2163636,-2.02675 0.038079,-0.72246 0.093597,-1.44477 0.2257815,-2.16343 0.099381,-0.5971 0.3030764,-1.18181 0.5028691,-1.76878 0.1928973,-0.43745 0.4233922,-0.86865 0.6239313,-1.30491 0.2343884,-0.41996 0.5743465,-0.81271 0.9623932,-1.18639 0.4174361,-0.39647 0.888428,-0.77049 1.4117402,-1.11622 0.3819261,-0.24972 0.7539855,-0.50489 1.1298332,-0.75806 0.6033285,-0.34514 1.0044712,-0.43872 1.9128607,-0.75912 0.162292,-0.0573 0.3499975,-0.0663 0.531962,-0.0669 0.4101781,0.004 0.8203809,0.01 1.2290976,0.0333 0.5552947,0.0316 1.1112837,0.0633 1.6639207,0.10896 0.459552,0.0546 0.91182,0.12855 1.362553,0.20602 0.397406,0.0743 0.797819,0.15068 1.152248,0.28818 0.354353,0.17923 0.498747,0.40625 0.653398,0.66723 0.216639,0.39773 0.36295,0.80839 0.420406,1.22716 0.03058,0.35705 0.02747,0.71574 -0.09813,1.06695 -0.138209,0.35087 -0.328125,0.6983 -0.711911,0.97844 -0.69184,0.43906 -1.600179,0.77097 -2.564334,0.91519 l 1.328863,-0.61164 z"
         id="path856"
         style="fill:#ffffff;stroke:none;stroke-width:1.85779393;stroke-miterlimit:4;stroke-dasharray:none" />
      <path
         inkscape:connector-curvature="0"
         d="m 15.23126,281.21174 c 0.313385,0.0321 0.624142,0.0857 0.935954,0.13007 0.397574,0.0641 0.793692,0.13638 1.191349,0.20016 0.0548,0.008 0.109604,0.0163 0.164407,0.0244 0,0 -0.605746,0.4289 -0.605746,0.4289 v 0 c -0.05366,-0.009 -0.107323,-0.0183 -0.160984,-0.0275 -0.396652,-0.069 -0.793562,-0.13683 -1.191468,-0.19798 -0.316011,-0.0456 -0.631866,-0.0982 -0.951013,-0.11549 0,0 0.617501,-0.44257 0.617501,-0.44257 z"
         id="path858"
         style="fill:#ffffff;stroke:none;stroke-width:1.08801067;stroke-miterlimit:4;stroke-dasharray:none" />
    </g>
  </g>
</svg>
